<svg xmlns="http://www.w3.org/2000/svg" version="1.1" xmlns:xlink="http://www.w3.org/1999/xlink" xmlns:svgjs="http://svgjs.dev/svgjs" width="1000" height="623" viewBox="0 0 1000 623"><g transform="matrix(1,0,0,1,-0.6060606060606233,0.2522267206477409)"><svg viewBox="0 0 396 247" data-background-color="#50a060" preserveAspectRatio="xMidYMid meet" height="623" width="1000" xmlns="http://www.w3.org/2000/svg" xmlns:xlink="http://www.w3.org/1999/xlink"><g id="tight-bounds" transform="matrix(1,0,0,1,0.2400000000000091,-0.09999999999999432)"><svg viewBox="0 0 395.52 247.2" height="247.2" width="395.52"><g><svg></svg></g><g><svg viewBox="0 0 395.52 247.2" height="247.2" width="395.52"><g transform="matrix(1,0,0,1,39.55199999999999,70.17506415854626)"><svg viewBox="0 0 316.416 106.84987168290745" height="106.84987168290745" width="316.416"><g><svg viewBox="0 0 316.416 106.84987168290745" height="106.84987168290745" width="316.416"><g><svg viewBox="0 0 316.416 106.84987168290745" height="106.84987168290745" width="316.416"><g><svg viewBox="0 0 316.416 106.84987168290745" height="106.84987168290745" width="316.416"><g id="textblocktransform"><svg viewBox="0 0 316.416 106.84987168290745" height="106.84987168290745" width="316.416" id="textblock"><g><svg viewBox="0 0 316.416 69.51416123076923" height="69.51416123076923" width="316.416"><g transform="matrix(1,0,0,1,0,0)"><svg width="316.416" viewBox="2.75 -35.04999923706055 162.49000549316406 35.70000076293945" height="69.51416123076923" data-palette-color="#454545"><path d="M30.15-34.4L32.8 0 28.35 0 27.3-15.55Q26.6-26 26.55-29.95L26.55-29.95 19.95-3.9 15.6-3.9 8.7-29.95Q8.75-25.6 8.15-15.45L8.15-15.45 7.15 0 2.75 0 5.4-34.4 11.45-34.4 17.85-8.95 24-34.4 30.15-34.4ZM51.25-13.8L38.3-13.8 38.3-17.5 51.25-17.5 51.25-13.8ZM66.4-35.05Q69.45-35.05 71.72-34.05 74-33.05 76-31.05L76-31.05 73.65-28.4Q71.95-29.9 70.27-30.63 68.59-31.35 66.65-31.35L66.65-31.35Q64.15-31.35 62.62-29.98 61.1-28.6 61.1-26.35L61.1-26.35Q61.1-24.85 61.7-23.78 62.3-22.7 63.75-21.83 65.2-20.95 67.84-20.05L67.84-20.05Q70.9-18.95 72.84-17.7 74.8-16.45 75.84-14.5 76.9-12.55 76.9-9.6L76.9-9.6Q76.9-6.65 75.55-4.33 74.2-2 71.67-0.68 69.15 0.65 65.75 0.65L65.75 0.65Q59.5 0.65 55.1-3.85L55.1-3.85 57.55-6.5Q59.4-4.85 61.32-3.98 63.25-3.1 65.59-3.1L65.59-3.1Q68.55-3.1 70.32-4.78 72.09-6.45 72.09-9.4L72.09-9.4Q72.09-11.95 70.67-13.45 69.25-14.95 65.45-16.25L65.45-16.25Q60.6-17.95 58.47-20.2 56.35-22.45 56.35-26.05L56.35-26.05Q56.35-28.6 57.62-30.68 58.9-32.75 61.2-33.9 63.5-35.05 66.4-35.05L66.4-35.05ZM104.84 0L100.19 0 100.19-16.15 87.69-16.15 87.69 0 83.04 0 83.04-34.4 87.69-34.4 87.69-19.95 100.19-19.95 100.19-34.4 104.84-34.4 104.84 0ZM124.79-35.05Q130.94-35.05 134.47-30.53 137.99-26 137.99-17.2L137.99-17.2Q137.99-8.55 134.49-3.95 130.99 0.65 124.79 0.65L124.79 0.65Q118.64 0.65 115.12-3.88 111.59-8.4 111.59-17.15L111.59-17.15Q111.59-22.9 113.22-26.93 114.84-30.95 117.81-33 120.79-35.05 124.79-35.05L124.79-35.05ZM124.79-31.35Q116.49-31.35 116.49-17.15L116.49-17.15Q116.49-3.1 124.79-3.1L124.79-3.1Q128.89-3.1 130.99-6.45 133.09-9.8 133.09-17.2L133.09-17.2Q133.09-24.55 130.97-27.95 128.84-31.35 124.79-31.35L124.79-31.35ZM152.54-34.4Q158.74-34.4 161.99-31.75 165.24-29.1 165.24-23.8L165.24-23.8Q165.24-18.2 161.91-15.48 158.59-12.75 152.69-12.75L152.69-12.75 149.39-12.75 149.39 0 144.74 0 144.74-34.4 152.54-34.4ZM152.54-16.35Q156.49-16.35 158.44-18 160.39-19.65 160.39-23.75L160.39-23.75Q160.39-27.5 158.46-29.18 156.54-30.85 152.59-30.85L152.59-30.85 149.39-30.85 149.39-16.35 152.54-16.35Z" opacity="1" transform="matrix(1,0,0,1,0,0)" fill="#454545" class="undefined-text-0" data-fill-palette-color="primary" id="text-0"></path></svg></g></svg></g><g transform="matrix(1,0,0,1,0,85.92478635748431)"><svg viewBox="0 0 316.416 20.92508532542314" height="20.92508532542314" width="316.416"><g transform="matrix(1,0,0,1,0,0)"><svg width="316.416" viewBox="1.25 -43.650001525878906 859.6500244140625 56.85000228881836" height="20.92508532542314" data-palette-color="#454545"><path d="M22.25-27.05Q24.95-27.05 27.13-25.33 29.3-23.6 30.53-20.65 31.75-17.7 31.75-14.15L31.75-14.15Q31.75-10.3 29.4-6.93 27.05-3.55 23.53-1.53 20 0.5 16.7 0.5L16.7 0.5Q14.65 0.5 12.88-0.4 11.1-1.3 9.75-2.95L9.75-2.95 7.6 0 5.7 0 5.7-35.8 1.25-38.9 1.25-40.45 9.8-43.65 11.7-43.65 11.7-21.35 18.4-26.65Q20-27.05 22.25-27.05L22.25-27.05ZM19.6-3.7Q25.25-3.7 25.25-11.75L25.25-11.75Q25.25-16.4 23.8-19.6 22.35-22.8 19.7-22.8L19.7-22.8Q17.8-22.8 16-22.05 14.2-21.3 11.7-19.1L11.7-19.1 11.7-10.15Q11.7-7.4 13.75-5.55 15.8-3.7 19.6-3.7L19.6-3.7ZM63.9-6.9L55.05 0.1Q53.05 0.5 50.25 0.5L50.25 0.5Q46.95 0.5 44.33-1.23 41.7-2.95 40.23-5.9 38.75-8.85 38.75-12.4L38.75-12.4Q38.75-16.25 41.1-19.63 43.45-23 46.98-25.03 50.5-27.05 53.8-27.05L53.8-27.05Q58.55-27.05 61.18-23.3 63.8-19.55 63.8-13.4L63.8-13.4 45.3-13.4Q45.6-9.15 47.63-6.45 49.65-3.75 53.15-3.75L53.15-3.75Q56.4-3.75 62.4-8.8L62.4-8.8 63.9-6.9ZM50.9-22.85Q45.5-22.85 45.25-15.45L45.25-15.45 56.95-15.45Q56.5-18.15 56.03-19.58 55.55-21 54.38-21.93 53.2-22.85 50.9-22.85L50.9-22.85ZM86.25-5.4Q86.25-6.8 84.7-7.98 83.15-9.15 79.95-10.8L79.95-10.8Q77.35-12.15 75.75-13.15 74.15-14.15 73.03-15.48 71.9-16.8 71.9-18.35L71.9-18.35Q71.9-20.15 73.4-22.2 74.9-24.25 77.1-25.65 79.3-27.05 81.2-27.05L81.2-27.05Q83.5-27.05 86.53-26.48 89.55-25.9 90.9-25.2L90.9-25.2 90.9-17.5 89-17.5Q87.4-20.6 85.3-22.33 83.2-24.05 81-24.05L81-24.05Q79.45-24.05 78.5-23.23 77.55-22.4 77.55-21.15L77.55-21.15Q77.55-19.6 79.18-18.38 80.8-17.15 84.1-15.5L84.1-15.5Q86.65-14.2 88.2-13.25 89.75-12.3 90.83-11.03 91.9-9.75 91.9-8.2L91.9-8.2Q91.9-6.35 90.33-4.33 88.75-2.3 86.48-0.9 84.2 0.5 82.3 0.5L82.3 0.5Q79.85 0.5 76.48-0.08 73.1-0.65 71.65-1.35L71.65-1.35 71.65-9.05 73.55-9.05Q75.3-5.95 77.7-4.23 80.1-2.5 82.55-2.5L82.55-2.5Q84.2-2.5 85.23-3.35 86.25-4.2 86.25-5.4L86.25-5.4ZM117.4-3.9L112.35 0.1Q111.2 0.5 109.55 0.5L109.55 0.5Q105.4 0.5 103.48-1.68 101.55-3.85 101.55-8.4L101.55-8.4 101.55-23 96.15-23 96.15-25.05 105.65-36.1 107.55-36.1 107.55-25.05 116.55-25.05 116.55-23 107.55-23 107.55-7.8Q107.55-3.75 111.45-3.75L111.45-3.75Q112.5-3.75 113.48-4.2 114.45-4.65 115.9-5.8L115.9-5.8 117.4-3.9ZM149.8-2L148.8 0 134.85 0 134.85-1.55 139.3-5.05 139.3-19.65 134.85-22.75 134.85-24.3 143.4-27.5 145.3-27.5 145.3-3.75 149.8-2ZM142.1-42.5Q143.6-42.5 144.57-41.4 145.55-40.3 145.55-38.65L145.55-38.65Q145.55-37.5 144.85-36.48 144.15-35.45 143.1-34.85 142.05-34.25 141.05-34.25L141.05-34.25Q139.55-34.25 138.57-35.35 137.6-36.45 137.6-38.1L137.6-38.1Q137.6-39.25 138.3-40.28 139-41.3 140.05-41.9 141.1-42.5 142.1-42.5L142.1-42.5ZM186.25-1.95L185.25 0.05 175.75 0.05 175.75-16.8Q175.75-19.55 174.9-20.65 174.05-21.75 171.85-21.75L171.85-21.75Q170.2-21.75 168.58-21.15 166.95-20.55 164.75-18.85L164.75-18.85 164.75-3.7 169.25-1.95 168.25 0.05 154.3 0.05 154.3-1.5 158.75-5 158.75-19.15 154.3-21.75 154.3-23.3 162.85-27.5 164.5-21 171.6-26.65Q172.65-27.05 174.35-27.05L174.35-27.05Q177.75-27.05 179.75-24.98 181.75-22.9 181.75-19.35L181.75-19.35 181.75-3.75 186.25-1.95ZM235.45 10.75L234.45 12.75 218 12.75 218 11.2 224.95 7.5 224.95-3.55 220.3 0.15Q218.7 0.55 216.45 0.55L216.45 0.55Q213.15 0.55 210.52-1.18 207.9-2.9 206.42-5.85 204.95-8.8 204.95-12.35L204.95-12.35Q204.95-16.2 207.3-19.58 209.65-22.95 213.17-24.98 216.7-27 220-27L220-27Q223.85-27 226.55-24.05L226.55-24.05 229.05-27.55 230.95-27.55 230.95 8.95 235.45 10.75ZM219-3.7Q220.5-3.7 221.88-4.13 223.25-4.55 224.95-5.75L224.95-5.75 224.95-17.15Q224.65-19.65 222.63-21.23 220.6-22.8 217.1-22.8L217.1-22.8Q211.45-22.8 211.45-14.75L211.45-14.75Q211.45-10.05 213.4-6.88 215.35-3.7 219-3.7L219-3.7ZM269.9-2L268.9 0 259.4 0 259.4-5.2 253.05 0.1Q252 0.5 250.3 0.5L250.3 0.5Q246.9 0.5 244.9-1.58 242.9-3.65 242.9-7.2L242.9-7.2 242.9-19.15 238.45-21.75 238.45-23.3 247-27.5 248.9-27.5 248.9-9.7Q248.9-6.95 249.75-5.85 250.6-4.75 252.8-4.75L252.8-4.75Q254.35-4.75 255.85-5.33 257.35-5.9 259.4-7.6L259.4-7.6 259.4-19.15 254.95-21.75 254.95-23.3 263.5-27.5 265.4-27.5 265.4-3.75 269.9-2ZM301.45-2L300.45 0 290.95 0 290.95-4.35 285.3 0.1Q284.3 0.5 282.8 0.5L282.8 0.5Q278.5 0.5 276.57-1.65 274.65-3.8 274.65-6.8L274.65-6.8Q274.65-8.6 275.95-10.35 277.25-12.1 279.65-13.65L279.65-13.65 290.95-13.65 290.95-16.85Q290.95-20.1 289.22-21.45 287.5-22.8 284.5-22.8L284.5-22.8Q281.4-22.8 276.9-19.05L276.9-19.05 275.4-20.95 282.6-26.65Q284.6-27.05 287.4-27.05L287.4-27.05Q291.95-27.05 294.45-24.83 296.95-22.6 296.95-18.35L296.95-18.35 296.95-3.75 301.45-2ZM284.4-3.75Q287.45-3.75 290.95-6.55L290.95-6.55 290.95-11.6 282.1-11.6Q281.45-10.8 281.17-10 280.9-9.2 280.9-8.25L280.9-8.25Q280.9-6.4 281.85-5.08 282.8-3.75 284.4-3.75L284.4-3.75ZM319.4-2L318.4 0 304.45 0 304.45-1.55 308.9-5.05 308.9-35.8 304.45-38.9 304.45-40.45 313-43.65 314.9-43.65 314.9-3.75 319.4-2ZM338.85-2L337.85 0 323.9 0 323.9-1.55 328.35-5.05 328.35-19.65 323.9-22.75 323.9-24.3 332.45-27.5 334.35-27.5 334.35-3.75 338.85-2ZM331.15-42.5Q332.65-42.5 333.63-41.4 334.6-40.3 334.6-38.65L334.6-38.65Q334.6-37.5 333.9-36.48 333.2-35.45 332.15-34.85 331.1-34.25 330.1-34.25L330.1-34.25Q328.6-34.25 327.63-35.35 326.65-36.45 326.65-38.1L326.65-38.1Q326.65-39.25 327.35-40.28 328.05-41.3 329.1-41.9 330.15-42.5 331.15-42.5L331.15-42.5ZM362.65-3.9L357.6 0.1Q356.45 0.5 354.8 0.5L354.8 0.5Q350.65 0.5 348.72-1.68 346.8-3.85 346.8-8.4L346.8-8.4 346.8-23 341.4-23 341.4-25.05 350.9-36.1 352.8-36.1 352.8-25.05 361.8-25.05 361.8-23 352.8-23 352.8-7.8Q352.8-3.75 356.7-3.75L356.7-3.75Q357.75-3.75 358.72-4.2 359.7-4.65 361.15-5.8L361.15-5.8 362.65-3.9ZM392.55-26.55L392.55-25 379.9 0 369.5 13.2 367.6 11.7Q370.45 8.65 371.92 6.35 373.4 4.05 374 1.73 374.6-0.6 374.6-3.8L374.6-3.8 368.3-19.05 363.65-21.75 363.65-23.3 372.2-27.5 374.1-19.95 380.2-5.05 387.25-19.7 380.6-24.55 381.6-26.55 392.55-26.55ZM425.9-27.05Q427.95-27.05 430.67-26.48 433.4-25.9 434.6-25.2L434.6-25.2 434.6-17.5 432.7-17.5Q430.75-20 428.22-21.43 425.7-22.85 423-22.85L423-22.85Q420.7-22.85 419.52-20.8 418.35-18.75 418.35-14.8L418.35-14.8Q418.35-10.1 420.4-6.93 422.45-3.75 426.25-3.75L426.25-3.75Q429.1-3.75 434.35-7.85L434.35-7.85 435.85-5.95 428.15 0.1Q426.15 0.5 423.35 0.5L423.35 0.5Q420.05 0.5 417.42-1.23 414.8-2.95 413.32-5.9 411.85-8.85 411.85-12.4L411.85-12.4Q411.85-16.25 414.02-19.65 416.2-23.05 419.5-25.05 422.8-27.05 425.9-27.05L425.9-27.05ZM472.7-2L471.7 0 462.2 0 462.2-16.85Q462.2-19.6 461.35-20.7 460.5-21.8 458.3-21.8L458.3-21.8Q456.65-21.8 455.02-21.2 453.4-20.6 451.2-18.9L451.2-18.9 451.2-3.75 455.7-2 454.7 0 440.75 0 440.75-1.55 445.2-5.05 445.2-35.8 440.75-38.9 440.75-40.45 449.3-43.65 451.2-43.65 451.2-21.25 458.05-26.65Q459.1-27.05 460.8-27.05L460.8-27.05Q464.2-27.05 466.2-24.98 468.2-22.9 468.2-19.35L468.2-19.35 468.2-3.75 472.7-2ZM502.6-6.9L493.75 0.1Q491.75 0.5 488.95 0.5L488.95 0.5Q485.65 0.5 483.02-1.23 480.4-2.95 478.92-5.9 477.45-8.85 477.45-12.4L477.45-12.4Q477.45-16.25 479.8-19.63 482.15-23 485.67-25.03 489.2-27.05 492.5-27.05L492.5-27.05Q497.25-27.05 499.87-23.3 502.5-19.55 502.5-13.4L502.5-13.4 484-13.4Q484.3-9.15 486.32-6.45 488.35-3.75 491.85-3.75L491.85-3.75Q495.1-3.75 501.1-8.8L501.1-8.8 502.6-6.9ZM489.6-22.85Q484.2-22.85 483.95-15.45L483.95-15.45 495.65-15.45Q495.2-18.15 494.72-19.58 494.25-21 493.07-21.93 491.9-22.85 489.6-22.85L489.6-22.85ZM535.9-2L534.9 0 525.4 0 525.4-4.35 519.75 0.1Q518.75 0.5 517.25 0.5L517.25 0.5Q512.95 0.5 511.02-1.65 509.1-3.8 509.1-6.8L509.1-6.8Q509.1-8.6 510.4-10.35 511.7-12.1 514.1-13.65L514.1-13.65 525.4-13.65 525.4-16.85Q525.4-20.1 523.67-21.45 521.95-22.8 518.95-22.8L518.95-22.8Q515.85-22.8 511.35-19.05L511.35-19.05 509.85-20.95 517.05-26.65Q519.05-27.05 521.85-27.05L521.85-27.05Q526.4-27.05 528.9-24.83 531.4-22.6 531.4-18.35L531.4-18.35 531.4-3.75 535.9-2ZM518.85-3.75Q521.9-3.75 525.4-6.55L525.4-6.55 525.4-11.6 516.55-11.6Q515.9-10.8 515.62-10 515.35-9.2 515.35-8.25L515.35-8.25Q515.35-6.4 516.3-5.08 517.25-3.75 518.85-3.75L518.85-3.75ZM555.35 0.55Q552.65 0.55 550.35-1.1L550.35-1.1 550.35 8.6 557.35 10.75 556.35 12.75 539.9 12.75 539.9 11.2 544.35 7.7 544.35-19.15 539.9-21.75 539.9-23.3 548.45-27.5 550.1-21 557.25-26.65Q558.85-27.05 560.9-27.05L560.9-27.05Q563.6-27.05 565.77-25.33 567.95-23.6 569.17-20.65 570.4-17.7 570.4-14.15L570.4-14.15Q570.4-10.3 568.05-6.93 565.7-3.55 562.17-1.53 558.65 0.5 555.35 0.5L555.35 0.5 555.35 0.55ZM558.35-22.25Q556.45-22.25 554.65-21.5 552.85-20.75 550.35-18.55L550.35-18.55 550.35-10.1Q550.35-7.35 552.4-5.5 554.45-3.65 558.25-3.65L558.25-3.65Q563.9-3.65 563.9-11.7L563.9-11.7Q563.9-16.15 562.45-19.2 561-22.25 558.35-22.25L558.35-22.25ZM606.4-27.05Q609.7-27.05 612.32-25.33 614.95-23.6 616.42-20.65 617.9-17.7 617.9-14.15L617.9-14.15Q617.9-10.3 615.55-6.93 613.2-3.55 609.67-1.53 606.15 0.5 602.85 0.5L602.85 0.5Q599.55 0.5 596.92-1.23 594.3-2.95 592.82-5.9 591.35-8.85 591.35-12.4L591.35-12.4Q591.35-16.25 593.7-19.63 596.05-23 599.57-25.03 603.1-27.05 606.4-27.05L606.4-27.05ZM603.5-22.85Q597.85-22.85 597.85-14.8L597.85-14.8Q597.85-10.05 599.9-6.88 601.95-3.7 605.75-3.7L605.75-3.7Q611.4-3.7 611.4-11.8L611.4-11.8Q611.4-16.5 609.35-19.68 607.3-22.85 603.5-22.85L603.5-22.85ZM656.1-1.95L655.1 0.05 645.6 0.05 645.6-16.8Q645.6-19.55 644.75-20.65 643.9-21.75 641.7-21.75L641.7-21.75Q640.05-21.75 638.42-21.15 636.8-20.55 634.6-18.85L634.6-18.85 634.6-3.7 639.1-1.95 638.1 0.05 624.15 0.05 624.15-1.5 628.6-5 628.6-19.15 624.15-21.75 624.15-23.3 632.7-27.5 634.35-21 641.45-26.65Q642.5-27.05 644.2-27.05L644.2-27.05Q647.6-27.05 649.6-24.98 651.6-22.9 651.6-19.35L651.6-19.35 651.6-3.75 656.1-1.95ZM689.5 0.55Q686.8 0.55 684.5-1.1L684.5-1.1 684.5 8.6 691.5 10.75 690.5 12.75 674.05 12.75 674.05 11.2 678.5 7.7 678.5-19.15 674.05-21.75 674.05-23.3 682.6-27.5 684.25-21 691.4-26.65Q693-27.05 695.05-27.05L695.05-27.05Q697.75-27.05 699.92-25.33 702.1-23.6 703.32-20.65 704.55-17.7 704.55-14.15L704.55-14.15Q704.55-10.3 702.2-6.93 699.85-3.55 696.32-1.53 692.8 0.5 689.5 0.5L689.5 0.5 689.5 0.55ZM692.5-22.25Q690.6-22.25 688.8-21.5 687-20.75 684.5-18.55L684.5-18.55 684.5-10.1Q684.5-7.35 686.55-5.5 688.6-3.65 692.4-3.65L692.4-3.65Q698.05-3.65 698.05-11.7L698.05-11.7Q698.05-16.15 696.6-19.2 695.15-22.25 692.5-22.25L692.5-22.25ZM726.6-27.05Q729.9-27.05 732.52-25.33 735.15-23.6 736.63-20.65 738.1-17.7 738.1-14.15L738.1-14.15Q738.1-10.3 735.75-6.93 733.4-3.55 729.88-1.53 726.35 0.5 723.05 0.5L723.05 0.5Q719.75 0.5 717.13-1.23 714.5-2.95 713.02-5.9 711.55-8.85 711.55-12.4L711.55-12.4Q711.55-16.25 713.9-19.63 716.25-23 719.77-25.03 723.3-27.05 726.6-27.05L726.6-27.05ZM723.7-22.85Q718.05-22.85 718.05-14.8L718.05-14.8Q718.05-10.05 720.1-6.88 722.15-3.7 725.95-3.7L725.95-3.7Q731.6-3.7 731.6-11.8L731.6-11.8Q731.6-16.5 729.55-19.68 727.5-22.85 723.7-22.85L723.7-22.85ZM759.15-27.05Q761.2-27.05 763.92-26.48 766.65-25.9 767.85-25.2L767.85-25.2 767.85-17.5 765.95-17.5Q764-20 761.47-21.43 758.95-22.85 756.25-22.85L756.25-22.85Q753.95-22.85 752.77-20.8 751.6-18.75 751.6-14.8L751.6-14.8Q751.6-10.1 753.65-6.93 755.7-3.75 759.5-3.75L759.5-3.75Q762.35-3.75 767.6-7.85L767.6-7.85 769.1-5.95 761.4 0.1Q759.4 0.5 756.6 0.5L756.6 0.5Q753.3 0.5 750.67-1.23 748.05-2.95 746.57-5.9 745.1-8.85 745.1-12.4L745.1-12.4Q745.1-16.25 747.27-19.65 749.45-23.05 752.75-25.05 756.05-27.05 759.15-27.05L759.15-27.05ZM784.45-3.75L788.95-2 787.95 0 774 0 774-1.55 778.45-5.05 778.45-35.8 774-38.9 774-40.45 782.55-43.65 784.45-43.65 784.45-3.75ZM805.95-2L804.95 0 796.5 0 787.1-13.2 796.45-21.05 791.65-24.55 792.65-26.55 804.6-26.55 804.6-25 793-15.25 801.45-3.75 805.95-2ZM835.35-6.9L826.5 0.1Q824.5 0.5 821.7 0.5L821.7 0.5Q818.4 0.5 815.77-1.23 813.15-2.95 811.67-5.9 810.2-8.85 810.2-12.4L810.2-12.4Q810.2-16.25 812.55-19.63 814.9-23 818.42-25.03 821.95-27.05 825.25-27.05L825.25-27.05Q830-27.05 832.62-23.3 835.25-19.55 835.25-13.4L835.25-13.4 816.75-13.4Q817.05-9.15 819.07-6.45 821.1-3.75 824.6-3.75L824.6-3.75Q827.85-3.75 833.85-8.8L833.85-8.8 835.35-6.9ZM822.35-22.85Q816.95-22.85 816.7-15.45L816.7-15.45 828.4-15.45Q827.95-18.15 827.47-19.58 827-21 825.82-21.93 824.65-22.85 822.35-22.85L822.35-22.85ZM860.9-3.9L855.85 0.1Q854.7 0.5 853.05 0.5L853.05 0.5Q848.9 0.5 846.97-1.68 845.05-3.85 845.05-8.4L845.05-8.4 845.05-23 839.65-23 839.65-25.05 849.15-36.1 851.05-36.1 851.05-25.05 860.05-25.05 860.05-23 851.05-23 851.05-7.8Q851.05-3.75 854.95-3.75L854.95-3.75Q856-3.75 856.97-4.2 857.95-4.65 859.4-5.8L859.4-5.8 860.9-3.9Z" opacity="1" transform="matrix(1,0,0,1,0,0)" fill="#454545" class="undefined-text-1" data-fill-palette-color="secondary" id="text-1"></path></svg></g></svg></g></svg></g></svg></g></svg></g></svg></g></svg></g><g mask="url(#625f416a-0311-4b11-ad3f-01568a65a7e4)"><g transform="matrix(2.535210381449171, 0, 0, 2.535210381449171, 116.95018843342788, 1)"><svg xmlns="http://www.w3.org/2000/svg" xmlns:xlink="http://www.w3.org/1999/xlink" version="1.1" x="0" y="0" viewBox="18.17500114440918 1.8000001907348633 63.74998474121094 96.71781158447266" enable-background="new 0 0 100 100" xml:space="preserve" height="96.71781158447266" width="63.74998474121094" class="icon-none" data-fill-palette-color="accent" id="none"><path d="M49.5 91.9l-7.7 6.3c-0.7 0.6-1.7 0.1-1.7-0.8V69.2c1.2 0.4 2.4 0.7 3.7 0.7 2.2 0 4.2-0.7 6-1.9l0.1-0.1L50 68c1.8 1.3 3.9 2 6 2 1.3 0 2.6-0.3 3.8-0.8v28.3c0 0.9-1 1.3-1.7 0.8l-7.9-6.4C50.1 91.7 49.7 91.7 49.5 91.9zM19.6 35.7c-1.9-1.7-1.9-4.6 0-6.2l1.2-1.1c1.3-1.2 1.8-3.1 1.1-4.7l-0.6-1.5c-1-2.3 0.3-4.9 2.7-5.6l1.6-0.4c1.7-0.5 2.9-2 3-3.8l0.1-1.6c0.1-2.2 2-3.9 4.1-3.9 0.2 0 0.5 0 0.7 0.1l1.6 0.3c0.2 0 0.5 0.1 0.7 0.1 1.5 0 2.9-0.8 3.6-2.1l0.8-1.4c0.8-1.4 2.2-2.1 3.6-2.1 0.8 0 1.7 0.3 2.4 0.8l1.3 1c0.7 0.5 1.6 0.8 2.4 0.8 0.8 0 1.7-0.3 2.4-0.8l1.3-0.9c0.7-0.5 1.6-0.8 2.4-0.8 1.5 0 2.9 0.8 3.6 2.2l0.8 1.4c0.7 1.4 2.1 2.2 3.6 2.2 0.2 0 0.5 0 0.7-0.1L66.6 7c0.2 0 0.5-0.1 0.7-0.1 2.2 0 4 1.7 4.1 3.9l0.1 1.6c0.1 1.8 1.3 3.3 3 3.8l1.6 0.4c2.4 0.7 3.6 3.3 2.7 5.6l-0.6 1.5c-0.7 1.6-0.3 3.5 1.1 4.7l1.2 1.1c1.9 1.7 1.9 4.6 0 6.2l-1.2 1.1c-1.3 1.2-1.8 3.1-1.1 4.7l0.6 1.5c1 2.3-0.3 4.9-2.7 5.6l-1.6 0.4c-1.7 0.5-2.9 2-3 3.8l-0.1 1.6c-0.1 2.2-2 3.9-4.1 3.9-0.2 0-0.5 0-0.7-0.1l-1.6-0.3c-0.2 0-0.5-0.1-0.7-0.1-1.5 0-2.9 0.8-3.6 2.1l-0.8 1.4c-0.8 1.4-2.2 2.1-3.6 2.1-0.8 0-1.7-0.3-2.4-0.8l-1.3-1c-0.7-0.5-1.6-0.8-2.4-0.8-0.8 0-1.7 0.3-2.4 0.8L46.2 63c-0.7 0.5-1.6 0.8-2.4 0.8-1.5 0-2.9-0.8-3.6-2.2l-0.8-1.4c-0.7-1.4-2.1-2.2-3.6-2.2-0.2 0-0.5 0-0.7 0.1l-1.6 0.3c-0.2 0-0.5 0.1-0.7 0.1-2.2 0-4-1.7-4.1-3.9l-0.1-1.6c-0.1-1.8-1.3-3.3-3-3.8l-1.6-0.4c-2.4-0.7-3.6-3.3-2.7-5.6l0.6-1.5c0.7-1.6 0.3-3.5-1.1-4.7L19.6 35.7zM34.6 43.6c0 1.5 1.2 2.7 2.7 2.7h4c0.5 0 1.1-0.2 1.5-0.4 0.1-0.1 0.6-0.6 0.6-2.1v-6.6c0 0 0 8.2 4.6 8.7 1.6 0.1 3.7 0.2 5.7 0.2 1.8 0.1 3.8 0.2 5.4-0.2 5.3-1.1 4-4.8 4-4.8 2.9-2.1 1.2-4.8 1.2-4.8 2.5-2.6 0-4.9 0-4.9s1.4-2.1-0.4-3.7c-2.2-2-8.2-0.7-8.2-0.7l0 0c-0.4 0.1-0.9 0.2-1.3 0.3 0 0-2.1 1 0-5.3 2.1-6.3-1.4-7.3-2.8-7.3-1.5 0-1 3.1-1 3.1s-3.1 8.6-6.1 10.8c-0.8 0.8-1.2 1.8-1.4 2.4-0.5-0.4-1.1-0.6-1.7-0.6h-4c-1.5 0-2.7 1.2-2.7 2.7V43.6z" fill="#454545" data-fill-palette-color="accent"></path></svg></g></g></svg></g><defs><mask id="625f416a-0311-4b11-ad3f-01568a65a7e4"><rect width="640" height="400" fill="white"></rect><rect width="348.05760000000004" height="139.6711219363376" fill="black" y="53.76443903183119" x="23.731199999999973" id="transform-me"></rect></mask></defs></svg><rect width="395.52" height="247.2" fill="none" stroke="none" visibility="hidden"></rect></g></svg></g></svg>